<svg width="1098" height="1224" viewBox="0 0 1298 1224" fill="none" xmlns="http://www.w3.org/2000/svg">
<path opacity="0.1" d="M1.00004 0L1 1224M73.0001 0L73 1224M145 0L145 1224M217 0L217 1224M289 0L289 1224M361 0L361 1224M433 0L433 1224M505 0L505 1224M577 0L577 1224M649 0L649 1224M721 0L721 1224M793 0L793 1224M865 0L865 1224M937 0L937 1224M1009 0L1009 1224M1081 0V1224M1153 0V1224M1225 0V1224M1297 0V1224" stroke="url(#paint0_linear_142_1150)"/>
<defs>
<linearGradient id="paint0_linear_142_1150" x1="1296.49" y1="2.43095e-06" x2="1296.49" y2="1193.37" gradientUnits="userSpaceOnUse">
<stop stop-color="white"/>
<stop offset="1" stop-color="white" stop-opacity="0"/>
</linearGradient>
</defs>
</svg>
