<svg width="22" height="22" viewBox="0 0 22 22" fill="none" xmlns="http://www.w3.org/2000/svg">
<path d="M12 0L12.001 3.062C13.7632 3.28479 15.4013 4.08743 16.6572 5.34351C17.9131 6.5996 18.7155 8.23775 18.938 10H22V12L18.938 12.001C18.7153 13.7631 17.9128 15.401 16.6569 16.6569C15.401 17.9128 13.7631 18.7153 12.001 18.938L12 22H10V18.938C8.23775 18.7155 6.5996 17.9131 5.34351 16.6572C4.08743 15.4013 3.28479 13.7632 3.062 12.001L0 12V10H3.062C3.28459 8.23761 4.08713 6.59934 5.34324 5.34324C6.59934 4.08713 8.23761 3.28459 10 3.062V0H12ZM11 9C10.4696 9 9.96086 9.21071 9.58579 9.58579C9.21071 9.96086 9 10.4696 9 11C9 11.5304 9.21071 12.0391 9.58579 12.4142C9.96086 12.7893 10.4696 13 11 13C11.5304 13 12.0391 12.7893 12.4142 12.4142C12.7893 12.0391 13 11.5304 13 11C13 10.4696 12.7893 9.96086 12.4142 9.58579C12.0391 9.21071 11.5304 9 11 9Z" fill="#06B6D4"/>
</svg>
