<svg width="20" height="20" viewBox="0 0 20 20" fill="none" xmlns="http://www.w3.org/2000/svg">
<path d="M13.2245 13.508L11.0115 18.158C10.9696 18.2459 10.907 18.3223 10.829 18.3806C10.751 18.4389 10.6599 18.4774 10.5638 18.4926C10.4676 18.5079 10.3691 18.4995 10.2769 18.4682C10.1847 18.4369 10.1015 18.3836 10.0345 18.313L6.49246 14.574C6.39784 14.4742 6.2718 14.41 6.13546 14.392L1.02846 13.724C0.931974 13.7113 0.840026 13.6753 0.760549 13.6191C0.681071 13.563 0.61645 13.4883 0.572259 13.4016C0.528067 13.3149 0.505631 13.2187 0.506886 13.1214C0.508141 13.0241 0.533049 12.9285 0.579462 12.843L3.04146 8.319C3.10691 8.19801 3.1288 8.0582 3.10346 7.923L2.16046 2.86C2.14255 2.76417 2.14827 2.66541 2.17711 2.57229C2.20595 2.47916 2.25705 2.39446 2.32599 2.32553C2.39493 2.25659 2.47962 2.20549 2.57275 2.17665C2.66588 2.14781 2.76463 2.14209 2.86046 2.16L7.92346 3.103C8.05867 3.12834 8.19847 3.10645 8.31946 3.041L12.8435 0.578999C12.9291 0.532573 13.0247 0.507685 13.1221 0.506485C13.2195 0.505284 13.3157 0.527807 13.4024 0.572108C13.4891 0.616408 13.5638 0.681155 13.6199 0.760758C13.676 0.84036 13.7119 0.932424 13.7245 1.029L14.3925 6.135C14.4104 6.27134 14.4747 6.39737 14.5745 6.492L18.3135 10.034C18.3841 10.101 18.4374 10.1842 18.4687 10.2765C18.5 10.3687 18.5084 10.4671 18.4931 10.5633C18.4778 10.6595 18.4394 10.7505 18.3811 10.8285C18.3228 10.9065 18.2464 10.9691 18.1585 11.011L13.5085 13.224C13.384 13.2832 13.2837 13.3835 13.2245 13.508ZM14.0215 15.435L15.4355 14.021L19.6785 18.263L18.2635 19.678L14.0215 15.435Z" fill="#3B82F6"/>
</svg>
