<svg width="24" height="11" viewBox="0 0 24 11" fill="none" xmlns="http://www.w3.org/2000/svg">
<path d="M6.72 3.756C7.74667 3.868 8.568 4.05 9.184 4.302C9.80933 4.554 10.262 4.88533 10.542 5.296C10.822 5.70667 10.962 6.22 10.962 6.836C10.962 7.508 10.7427 8.096 10.304 8.6C9.87467 9.09467 9.27733 9.47733 8.512 9.748C7.74667 10.0093 6.874 10.14 5.894 10.14C4.802 10.14 3.878 10.0047 3.122 9.734C2.366 9.46333 1.80133 9.104 1.428 8.656C1.05467 8.19867 0.868 7.69933 0.868 7.158C0.868 7.06467 0.896 6.99 0.952 6.934C1.01733 6.878 1.09667 6.85 1.19 6.85H4.06C4.256 6.85 4.41467 6.91067 4.536 7.032C4.69467 7.18133 4.872 7.284 5.068 7.34C5.264 7.38667 5.53933 7.41 5.894 7.41C6.78067 7.41 7.224 7.27467 7.224 7.004C7.224 6.892 7.16333 6.79867 7.042 6.724C6.93 6.64 6.72467 6.57 6.426 6.514C6.13667 6.44867 5.70733 6.38333 5.138 6.318C3.85933 6.16867 2.87933 5.85133 2.198 5.366C1.51667 4.87133 1.176 4.176 1.176 3.28C1.176 2.64533 1.36733 2.08533 1.75 1.6C2.13267 1.11467 2.674 0.736666 3.374 0.465999C4.08333 0.195333 4.90467 0.0599995 5.838 0.0599995C6.80867 0.0599995 7.658 0.213999 8.386 0.521999C9.114 0.820666 9.66933 1.194 10.052 1.642C10.4347 2.09 10.626 2.52867 10.626 2.958C10.626 3.05133 10.5933 3.126 10.528 3.182C10.472 3.238 10.3927 3.266 10.29 3.266H7.28C7.12133 3.266 6.97667 3.21 6.846 3.098C6.74333 3.00467 6.622 2.93 6.482 2.874C6.342 2.818 6.12733 2.79 5.838 2.79C5.21267 2.79 4.9 2.92067 4.9 3.182C4.9 3.322 5.02133 3.434 5.264 3.518C5.50667 3.59267 5.992 3.672 6.72 3.756ZM19.6785 0.577999C19.8185 0.325999 20.0192 0.199999 20.2805 0.199999H22.8425C22.9452 0.199999 23.0339 0.237333 23.1085 0.312C23.1832 0.386666 23.2205 0.475333 23.2205 0.577999V9.622C23.2205 9.72467 23.1832 9.81333 23.1085 9.888C23.0339 9.96267 22.9452 10 22.8425 10H20.3085C20.2059 10 20.1172 9.96267 20.0425 9.888C19.9679 9.81333 19.9305 9.72467 19.9305 9.622V5.282L18.9085 7.298C18.8805 7.36333 18.8152 7.438 18.7125 7.522C18.6099 7.606 18.4792 7.648 18.3205 7.648H17.3685C17.2099 7.648 17.0792 7.606 16.9765 7.522C16.8739 7.438 16.8085 7.36333 16.7805 7.298L15.7585 5.282V9.622C15.7585 9.72467 15.7212 9.81333 15.6465 9.888C15.5719 9.96267 15.4832 10 15.3805 10H12.8465C12.7439 10 12.6552 9.96267 12.5805 9.888C12.5059 9.81333 12.4685 9.72467 12.4685 9.622V0.577999C12.4685 0.475333 12.5059 0.386666 12.5805 0.312C12.6552 0.237333 12.7439 0.199999 12.8465 0.199999H15.4085C15.6699 0.199999 15.8705 0.325999 16.0105 0.577999L17.8445 3.938L19.6785 0.577999Z" fill="white"/>
</svg>
